# xmcd
#
# Track frame offsets:
#	150
#	25665
#	41224
#	63795
#	79802
#	100352
#	116363
#	129373
#	152017
#	166831
#	194034
#	216490
#	232585
#	248897
#	268499
#	289089
#	310187
#	328441
#
# Disc length: 4638 seconds
#
# Revision: 1
# Processed by: cddbd v1.5PL3 Copyright (c) Steve Scherf et al.
# Submitted via: audiograbber 1.83.01
#
DISCID=05121c12
DTITLE=V - Turbo Disco 13.  (2004)
DYEAR=1900
DGENRE=
TTITLE0=Digital Emotion. - Get Up Action.
TTITLE1=Chilly. - We Are The Popkings.
TTITLE2=Donna Summer. - Take Me.
TTITLE3=Pasangers. - Casino.
TTITLE4=Andy Gibb. - Shadow Dancing.
TTITLE5=Bananarama. - Venus.
TTITLE6=Arabesque. - In The Heat Of The Disco Night.
TTITLE7=Goiorgio Moroder. - I'm Left, You're Right, She's Gone.
TTITLE8=Tina Charles. - I Love To Love. (Rmx)
TTITLE9=Bisqit. - Zoo Zoo.
TTITLE10=Tony Esposito. - Kalimba De Luna.
TTITLE11=Ganymed. - Robot Love.
TTITLE12=Secret Service. - Ten O'Clock Postman.
TTITLE13=Saphir. - Shot In The Night.
TTITLE14=Taco. - Putting On The Ritz.
TTITLE15=Dee D. Jackson. - Galaxy Police.
TTITLE16=Emly Starr. - Do Svidaanja.
TTITLE17=Space. - Air Force.
EXTD=
EXTT0=
EXTT1=
EXTT2=
EXTT3=
EXTT4=
EXTT5=
EXTT6=
EXTT7=
EXTT8=
EXTT9=
EXTT10=
EXTT11=
EXTT12=
EXTT13=
EXTT14=
EXTT15=
EXTT16=
EXTT17=
PLAYORDER=
